<svg width="28" height="28" viewBox="0 0 28 28" fill="none" xmlns="http://www.w3.org/2000/svg">
<path d="M11.6669 4.66666H8.40019C7.0934 4.66666 6.43952 4.66666 5.94039 4.92098C5.50134 5.14468 5.14465 5.50138 4.92094 5.94042C4.66663 6.43955 4.66663 7.09343 4.66663 8.40022V19.6002C4.66663 20.907 4.66663 21.5601 4.92094 22.0592C5.14465 22.4982 5.50134 22.8556 5.94039 23.0793C6.43903 23.3333 7.09212 23.3333 8.39635 23.3333H19.6036C20.9078 23.3333 21.5599 23.3333 22.0586 23.0793C22.4976 22.8556 22.8555 22.4979 23.0792 22.0589C23.3333 21.5602 23.3333 20.9078 23.3333 19.6036V16.3333M18.6666 5.83333L11.6666 12.8333V16.3333H15.1666L22.1666 9.33333M18.6666 5.83333L22.1666 2.33333L25.6666 5.83333L22.1666 9.33333M18.6666 5.83333L22.1666 9.33333" stroke="#121212" stroke-width="1.5" stroke-linecap="round" stroke-linejoin="round"/>
</svg>
