<?xml version="1.0" encoding="UTF-8"?>
<svg id="_Слой_1" data-name="Слой 1" xmlns="http://www.w3.org/2000/svg" version="1.1" viewBox="0 0 24 24">
  <defs>
    <style>
      .cls-1 {
        fill: none;
        stroke: #000;
        stroke-linecap: round;
        stroke-linejoin: round;
        stroke-width: 1.2px;
      }
    </style>
  </defs>
  <path class="cls-1" d="M9.2,9h-2c-1.1,0-1.7,0-2.1.2-.4.2-.7.5-.9.9-.2.4-.2,1-.2,2.1v5.6c0,1.1,0,1.7.2,2.1.2.4.5.7.9.9.4.2,1,.2,2.1.2h9.6c1.1,0,1.7,0,2.1-.2.4-.2.7-.5.9-.9.2-.4.2-1,.2-2.1v-5.6c0-1.1,0-1.7-.2-2.1-.2-.4-.5-.7-.9-.9-.4-.2-1-.2-2.1-.2h-2M9.2,9h5.5M9.2,9c-.1,0-.2-.1-.2-.2v-2.8c0-1.7,1.3-3,3-3s3,1.3,3,3v2.8c0,.1-.1.2-.2.2"/>
</svg>